<svg width="16" height="18" viewBox="0 0 16 18" fill="none" xmlns="http://www.w3.org/2000/svg">
<path d="M15.0795 10.5941H3.28033V14.5272H15.0795V17.8243H3.28033C2.83403 17.8243 2.41004 17.7406 2.00837 17.5732C1.60669 17.3947 1.25523 17.1604 0.953975 16.8703C0.663877 16.569 0.429568 16.2176 0.251046 15.8159C0.083682 15.4142 0 14.9847 0 14.5272V3.29707C0 2.83961 0.083682 2.41004 0.251046 2.00837C0.429568 1.60669 0.663877 1.26081 0.953975 0.970711C1.25523 0.669456 1.60669 0.435146 2.00837 0.267782C2.41004 0.0892608 2.83403 0 3.28033 0H11.7824C12.2399 0 12.6695 0.0892608 13.0711 0.267782C13.4728 0.435146 13.8187 0.669456 14.1088 0.970711C14.41 1.26081 14.6444 1.60669 14.8117 2.00837C14.9902 2.41004 15.0795 2.83961 15.0795 3.29707V10.5941ZM3.28033 3.29707V7.29707H11.7824V3.29707H3.28033Z" fill="#F3DFD8"/>
</svg>
