<svg width="20" height="24" viewBox="0 0 20 24" fill="none" xmlns="http://www.w3.org/2000/svg">
<path d="M0 3.43096C0 2.96234 0.0892608 2.52162 0.267782 2.10879C0.446304 1.6848 0.691771 1.32218 1.00418 1.02092C1.3166 0.708508 1.67922 0.46304 2.09205 0.284519C2.51604 0.0948396 2.96234 0 3.43096 0H16.4519C16.9205 0 17.3612 0.0948396 17.7741 0.284519C18.198 0.46304 18.5662 0.708508 18.8787 1.02092C19.1911 1.32218 19.4365 1.6848 19.6151 2.10879C19.7936 2.52162 19.8828 2.96234 19.8828 3.43096V6.5272H16.4519V3.43096H3.43096V20.569H16.4519V14.7448H9.94142V11.3138H19.8828V20.569C19.8828 21.0377 19.7936 21.484 19.6151 21.908C19.4365 22.3208 19.1911 22.6834 18.8787 22.9958C18.5662 23.3082 18.198 23.5537 17.7741 23.7322C17.3612 23.9107 16.9205 24 16.4519 24H3.43096C2.96234 24 2.51604 23.9107 2.09205 23.7322C1.67922 23.5537 1.3166 23.3082 1.00418 22.9958C0.691771 22.6834 0.446304 22.3208 0.267782 21.908C0.0892608 21.484 0 21.0377 0 20.569V3.43096Z" fill="#F3DFD8"/>
</svg>
