<svg width="16" height="18" viewBox="0 0 16 18" fill="none" xmlns="http://www.w3.org/2000/svg">
<path d="M15.7657 17.8243H12.4686V3.29707H3.28033V17.8243H0V0H3.28033V3.14644C3.30265 2.7113 3.40307 2.30404 3.58159 1.92469C3.76011 1.53417 3.99442 1.19944 4.28452 0.920502C4.58577 0.630404 4.93166 0.407252 5.32218 0.251046C5.71269 0.083682 6.1311 0 6.57741 0H12.4686C12.9261 0 13.3556 0.0892608 13.7573 0.267782C14.159 0.435146 14.5049 0.669456 14.795 0.970711C15.0962 1.26081 15.3305 1.60669 15.4979 2.00837C15.6764 2.41004 15.7657 2.83961 15.7657 3.29707V17.8243Z" fill="#F3DFD8"/>
</svg>
