<svg width="34" height="34" viewBox="0 0 34 34" fill="none" xmlns="http://www.w3.org/2000/svg">
<path d="M17.8299 30.3394C18.6597 31.1693 19.9954 31.1693 22.6667 31.1693H25.5C28.1713 31.1693 29.5069 31.1693 30.3368 30.3394C31.1667 29.5095 31.1667 28.1739 31.1667 25.5026V8.5026C31.1667 5.83133 31.1667 4.49566 30.3368 3.6658C29.5069 2.83594 28.1713 2.83594 25.5 2.83594H22.6667C19.9954 2.83594 18.6597 2.83594 17.8299 3.6658C17.1182 4.37747 17.0168 5.46111 17.0024 7.4401L19.8333 7.4401C20.4201 7.4401 20.8958 7.9158 20.8958 8.5026C20.8958 9.08941 20.4201 9.56511 19.8333 9.5651H17V11.6901H21.25C21.8368 11.6901 22.3125 12.1658 22.3125 12.7526C22.3125 13.3394 21.8368 13.8151 21.25 13.8151H17V15.9401H19.8333C20.4201 15.9401 20.8958 16.4158 20.8958 17.0026C20.8958 17.5894 20.4201 18.0651 19.8333 18.0651H17V20.1901L21.25 20.1901C21.8368 20.1901 22.3125 20.6658 22.3125 21.2526C22.3125 21.8394 21.8368 22.3151 21.25 22.3151L17 22.3151V24.4401H19.8333C20.4201 24.4401 20.8958 24.9158 20.8958 25.5026C20.8958 26.0894 20.4201 26.5651 19.8333 26.5651H17.0024C17.0168 28.5441 17.1182 29.6277 17.8299 30.3394Z" fill="#CE7D63"/>
<path d="M11.332 21.5267L11.332 10.2227C10.2426 10.6717 8.80562 11.0569 7.08229 11.0569C5.35868 11.0569 3.9215 10.6716 2.83203 10.2225L2.83203 21.5267C2.83203 22.4088 2.83203 22.8499 2.88553 23.2827C2.94865 23.7933 3.0672 24.2955 3.23908 24.7804C3.3848 25.1915 3.58205 25.586 3.97656 26.375L6.05692 30.5357C6.25106 30.924 6.64792 31.1693 7.08203 31.1693C7.51614 31.1693 7.913 30.924 8.10714 30.5357L10.1875 26.375C10.582 25.586 10.7793 25.1915 10.925 24.7804C11.0969 24.2955 11.2154 23.7933 11.2785 23.2827C11.332 22.8499 11.332 22.4088 11.332 21.5267Z" fill="#CE7D63"/>
<path d="M11.332 7.08594C11.332 4.73873 9.42924 2.83594 7.08203 2.83594C4.73482 2.83594 2.83203 4.73873 2.83203 7.08594L2.83203 8.44171C2.86934 8.46046 2.90739 8.47925 2.94617 8.49805C3.91081 8.96576 5.31846 9.43579 7.08229 9.43579C8.84611 9.43579 10.2538 8.96576 11.2184 8.49805C11.257 8.47934 11.2949 8.46063 11.332 8.44197V7.08594Z" fill="#CE7D63"/>
</svg>
