<svg width="34" height="34" viewBox="0 0 34 34" fill="none" xmlns="http://www.w3.org/2000/svg">
<path d="M12.9657 7.66447C14.7601 4.44545 15.6573 2.83594 16.9987 2.83594C18.3401 2.83594 19.2373 4.44545 21.0317 7.66447L21.496 8.49727C22.0059 9.41201 22.2608 9.86939 22.6584 10.1712C23.0559 10.4729 23.551 10.585 24.5412 10.809L25.4427 11.013C28.9272 11.8014 30.6695 12.1956 31.084 13.5286C31.4985 14.8615 30.3108 16.2505 27.9352 19.0283L27.3206 19.747C26.6456 20.5364 26.3081 20.9311 26.1562 21.4194C26.0044 21.9077 26.0554 22.4343 26.1575 23.4875L26.2504 24.4463C26.6095 28.1526 26.7891 30.0058 25.7039 30.8296C24.6187 31.6534 22.9874 30.9023 19.7248 29.4001L18.8808 29.0115C17.9536 28.5846 17.4901 28.3711 16.9987 28.3711C16.5073 28.3711 16.0438 28.5846 15.1166 29.0115L14.2726 29.4001C11.01 30.9023 9.3787 31.6534 8.29349 30.8296C7.20829 30.0058 7.38786 28.1526 7.74701 24.4463L7.83993 23.4875C7.94198 22.4343 7.99301 21.9077 7.84117 21.4194C7.68933 20.9311 7.3518 20.5364 6.67675 19.747L6.06217 19.0283C3.68663 16.2505 2.49887 14.8615 2.91338 13.5286C3.32789 12.1956 5.07016 11.8014 8.55471 11.013L9.4562 10.809C10.4464 10.585 10.9415 10.4729 11.339 10.1712C11.7366 9.86939 11.9915 9.41201 12.5014 8.49727L12.9657 7.66447Z" fill="#CE7D63"/>
</svg>
