<svg width="34" height="34" viewBox="0 0 34 34" fill="none" xmlns="http://www.w3.org/2000/svg">
<path fill-rule="evenodd" clip-rule="evenodd" d="M17 31.1693C24.0416 31.1693 29.75 25.4609 29.75 18.4193C29.75 11.3776 24.0416 5.66927 17 5.66927C9.95837 5.66927 4.25 11.3776 4.25 18.4193C4.25 25.4609 9.95837 31.1693 17 31.1693ZM17 11.6901C17.5868 11.6901 18.0625 12.1658 18.0625 12.7526V18.4193C18.0625 19.0061 17.5868 19.4818 17 19.4818C16.4132 19.4818 15.9375 19.0061 15.9375 18.4193V12.7526C15.9375 12.1658 16.4132 11.6901 17 11.6901Z" fill="#CE7D63"/>
<path fill-rule="evenodd" clip-rule="evenodd" d="M13.1042 2.83594C13.1042 2.24913 13.5799 1.77344 14.1667 1.77344H19.8333C20.4201 1.77344 20.8958 2.24913 20.8958 2.83594C20.8958 3.42274 20.4201 3.89844 19.8333 3.89844H14.1667C13.5799 3.89844 13.1042 3.42274 13.1042 2.83594Z" fill="#CE7D63"/>
</svg>
