<svg width="34" height="34" viewBox="0 0 34 34" fill="none" xmlns="http://www.w3.org/2000/svg">
<path fill-rule="evenodd" clip-rule="evenodd" d="M4.25 14.7595C4.25 10.2296 4.25 7.96467 4.78481 7.20268C5.31963 6.4407 7.44929 5.71171 11.7086 4.25373L12.5201 3.97595C14.7404 3.21594 15.8505 2.83594 17 2.83594C18.1495 2.83594 19.2596 3.21594 21.4799 3.97595L22.2914 4.25373C26.5507 5.71171 28.6804 6.4407 29.2152 7.20268C29.75 7.96467 29.75 10.2296 29.75 14.7595V16.9904C29.75 24.9776 23.7448 28.8537 19.977 30.4996C18.955 30.946 18.444 31.1693 17 31.1693C15.556 31.1693 15.045 30.946 14.023 30.4996C10.2552 28.8537 4.25 24.9776 4.25 16.9904V14.7595ZM19.8333 12.7526C19.8333 14.3174 18.5648 15.5859 17 15.5859C15.4352 15.5859 14.1667 14.3174 14.1667 12.7526C14.1667 11.1878 15.4352 9.91927 17 9.91927C18.5648 9.91927 19.8333 11.1878 19.8333 12.7526ZM17 24.0859C22.6667 24.0859 22.6667 22.8174 22.6667 21.2526C22.6667 19.6878 20.1296 18.4193 17 18.4193C13.8704 18.4193 11.3333 19.6878 11.3333 21.2526C11.3333 22.8174 11.3333 24.0859 17 24.0859Z" fill="#CE7D63"/>
</svg>
