<svg width="34" height="34" viewBox="0 0 34 34" fill="none" xmlns="http://www.w3.org/2000/svg">
<path d="M18.4658 5.1757L17.654 5.65647C16.7622 6.18455 16.3164 6.44859 15.8252 6.51011C15.3341 6.57163 14.8532 6.42366 13.8915 6.12771L13.0159 5.85828C9.63153 4.81684 7.93935 4.29612 6.92218 5.22711C5.905 6.15809 6.23647 7.92422 6.89941 11.4565L7.07092 12.3703C7.2593 13.3741 7.3535 13.876 7.24176 14.3662C7.13003 14.8565 6.82502 15.2797 6.21499 16.1262L5.65962 16.8967C3.51292 19.8753 2.43957 21.3646 2.96321 22.5992C3.48686 23.8338 5.2607 23.9962 8.80838 24.3209L9.72623 24.4049C10.7344 24.4972 11.2385 24.5434 11.6606 24.7849C12.0827 25.0264 12.375 25.4359 12.9597 26.2549L13.4921 27.0006C15.5497 29.8829 16.5785 31.324 17.9193 31.1561C19.2601 30.9882 20.025 29.3224 21.5546 25.9908L21.9503 25.1289C22.1725 24.645 22.3379 24.2848 22.4962 24.0027L28.9974 30.5039C29.4123 30.9188 30.0851 30.9188 30.5 30.5039C30.9149 30.089 30.9149 29.4162 30.5 29.0013L24.2217 22.723C24.3945 22.6601 24.5874 22.5925 24.8047 22.5164L25.6891 22.2067C29.1074 21.0095 30.8166 20.4109 31.1217 19.0725C31.4267 17.734 30.1255 16.5422 27.5232 14.1584L26.85 13.5417C26.1105 12.8643 25.7407 12.5256 25.5489 12.0734C25.3571 11.6211 25.3649 11.1064 25.3805 10.0772L25.3948 9.14001C25.4498 5.51782 25.4773 3.70673 24.3251 3.04746C23.1728 2.3882 21.6038 3.31737 18.4658 5.1757Z" fill="#CE7D63"/>
</svg>
