<svg width="32" height="20" viewBox="0 0 32 20" fill="none" xmlns="http://www.w3.org/2000/svg">
<path d="M12.6455 9.07925C12.6455 9.07925 15.6096 8.85403 15.6096 5.30733C15.6096 1.76356 13.5993 0.0166468 10.5265 0.0166468L0 0V19.5842H10.7713C10.7713 19.5842 16.157 19.7546 16.157 13.709C16.157 13.709 16.5526 9.07925 12.6455 9.07925ZM3.91685 2.93764H9.30251C9.30251 2.93764 11.1454 2.96799 11.1454 5.35727C11.1454 7.83369 9.30251 7.83369 9.30251 7.83369H3.91685V2.93764ZM9.79212 16.6466H3.91685V10.7713H9.79212C9.79212 10.7713 12.7298 10.8017 12.7298 13.709C12.7298 16.6162 10.2151 16.6466 9.79212 16.6466Z" fill="#D48E77"/>
<path d="M24.479 4.89844C17.1222 4.89844 17.135 12.2425 17.135 12.2425C17.135 12.2425 16.6453 19.5866 24.479 19.5866C24.479 19.5866 31.3335 19.5866 31.3335 13.7113H27.4167C27.4167 13.7113 27.4167 16.649 24.479 16.649C24.479 16.649 21.5414 16.649 21.5414 12.7321C21.5414 12.7321 29.3751 12.7321 31.3335 12.7321C31.3335 10.7737 31.3335 4.89844 24.479 4.89844ZM21.5414 10.7737C21.5414 10.7737 21.4768 7.83607 24.479 7.83607C27.4803 7.83607 27.4167 10.7737 27.4167 10.7737H21.5414Z" fill="#D48E77"/>
<path d="M28.3962 1.96094H20.5625V3.91936H28.3962V1.96094Z" fill="#D48E77"/>
</svg>
