<svg width="34" height="34" viewBox="0 0 34 34" fill="none" xmlns="http://www.w3.org/2000/svg">
<path d="M12.2751 17.0026C12.2751 14.3947 14.3899 12.28 16.9993 12.28C19.6088 12.28 21.7248 14.3947 21.7248 17.0026C21.7248 19.6105 19.6088 21.7252 16.9993 21.7252C14.3899 21.7252 12.2751 19.6105 12.2751 17.0026ZM9.72059 17.0026C9.72059 21.0202 12.9793 24.277 16.9993 24.277C21.0194 24.277 24.2781 21.0202 24.2781 17.0026C24.2781 12.9849 21.0194 9.72817 16.9993 9.72817C12.9793 9.72817 9.72059 12.9849 9.72059 17.0026ZM22.8652 9.43974C22.8651 9.77597 22.9647 10.1047 23.1515 10.3843C23.3383 10.664 23.6039 10.882 23.9147 11.0107C24.2254 11.1395 24.5674 11.1733 24.8974 11.1079C25.2274 11.0424 25.5306 10.8806 25.7686 10.643C26.0066 10.4053 26.1687 10.1025 26.2345 9.77274C26.3002 9.443 26.2667 9.10117 26.138 8.79049C26.0094 8.4798 25.7915 8.21421 25.5119 8.0273C25.2322 7.84039 24.9034 7.74056 24.5669 7.74042H24.5663C24.1153 7.74063 23.6829 7.91971 23.3639 8.23833C23.045 8.55695 22.8656 8.98906 22.8652 9.43974ZM11.2726 28.5339C9.89058 28.471 9.13941 28.2409 8.64022 28.0465C7.97841 27.789 7.50621 27.4824 7.00974 26.9869C6.51327 26.4914 6.20595 26.0199 5.94944 25.3585C5.75484 24.8598 5.52464 24.1089 5.46181 22.7277C5.39309 21.2344 5.37937 20.7858 5.37937 17.0027C5.37937 13.2195 5.39423 12.7722 5.46181 11.2777C5.52475 9.89647 5.75666 9.147 5.94944 8.64686C6.20708 7.98545 6.51395 7.51353 7.00974 7.01736C7.50553 6.52119 7.97727 6.21406 8.64022 5.9577C9.13918 5.76322 9.89058 5.53315 11.2726 5.47036C12.7668 5.40168 13.2156 5.38797 16.9993 5.38797C20.7831 5.38797 21.2324 5.40282 22.7278 5.47036C24.1098 5.53326 24.8597 5.76503 25.3602 5.9577C26.022 6.21406 26.4942 6.52187 26.9907 7.01736C27.4871 7.51285 27.7933 7.98545 28.051 8.64686C28.2456 9.14553 28.4758 9.89647 28.5386 11.2777C28.6073 12.7722 28.621 13.2195 28.621 17.0027C28.621 20.7858 28.6073 21.2332 28.5386 22.7277C28.4756 24.1089 28.2443 24.8596 28.051 25.3585C27.7933 26.0199 27.4864 26.4918 26.9907 26.9869C26.4949 27.4819 26.022 27.789 25.3602 28.0465C24.8612 28.241 24.1098 28.4711 22.7278 28.5339C21.2336 28.6025 20.7848 28.6163 16.9993 28.6163C13.2139 28.6163 12.7663 28.6025 11.2726 28.5339ZM11.1552 2.92173C9.6462 2.99041 8.61504 3.22954 7.71452 3.57974C6.78191 3.94139 5.99242 4.42657 5.20349 5.21378C4.41455 6.00099 3.93033 6.79126 3.56847 7.72331C3.21806 8.62386 2.97878 9.65383 2.91006 11.1619C2.84021 12.6725 2.82422 13.1554 2.82422 17.0026C2.82422 20.8498 2.84021 21.3327 2.91006 22.8432C2.97878 24.3514 3.21806 25.3813 3.56847 26.2818C3.93033 27.2133 4.41467 28.0045 5.20349 28.7914C5.9923 29.5782 6.78191 30.0627 7.71452 30.4254C8.61674 30.7756 9.6462 31.0147 11.1552 31.0834C12.6674 31.1521 13.1498 31.1692 16.9993 31.1692C20.8489 31.1692 21.3321 31.1532 22.8435 31.0834C24.3526 31.0147 25.3831 30.7756 26.2842 30.4254C27.2162 30.0627 28.0063 29.5786 28.7952 28.7914C29.5841 28.0041 30.0673 27.2133 30.4302 26.2818C30.7806 25.3813 31.021 24.3513 31.0886 22.8432C31.1574 21.3315 31.1733 20.8498 31.1733 17.0026C31.1733 13.1554 31.1574 12.6725 31.0886 11.1619C31.0199 9.65371 30.7806 8.62329 30.4302 7.72331C30.0673 6.79183 29.5829 6.00224 28.7952 5.21378C28.0075 4.42532 27.2162 3.94139 26.2853 3.57974C25.3831 3.22954 24.3525 2.98928 22.8446 2.92173C21.3332 2.85305 20.85 2.83594 17.0005 2.83594C13.151 2.83594 12.6674 2.85192 11.1552 2.92173Z" fill="#CE7D63"/>
<path d="M12.2751 17.0026C12.2751 14.3947 14.3899 12.28 16.9993 12.28C19.6088 12.28 21.7248 14.3947 21.7248 17.0026C21.7248 19.6105 19.6088 21.7252 16.9993 21.7252C14.3899 21.7252 12.2751 19.6105 12.2751 17.0026ZM9.72059 17.0026C9.72059 21.0202 12.9793 24.277 16.9993 24.277C21.0194 24.277 24.2781 21.0202 24.2781 17.0026C24.2781 12.9849 21.0194 9.72817 16.9993 9.72817C12.9793 9.72817 9.72059 12.9849 9.72059 17.0026ZM22.8652 9.43974C22.8651 9.77597 22.9647 10.1047 23.1515 10.3843C23.3383 10.664 23.6039 10.882 23.9147 11.0107C24.2254 11.1395 24.5674 11.1733 24.8974 11.1079C25.2274 11.0424 25.5306 10.8806 25.7686 10.643C26.0066 10.4053 26.1687 10.1025 26.2345 9.77274C26.3002 9.443 26.2667 9.10117 26.138 8.79049C26.0094 8.4798 25.7915 8.21421 25.5119 8.0273C25.2322 7.84039 24.9034 7.74056 24.5669 7.74042H24.5663C24.1153 7.74063 23.6829 7.91971 23.3639 8.23833C23.045 8.55695 22.8656 8.98906 22.8652 9.43974ZM11.2726 28.5339C9.89058 28.471 9.13941 28.2409 8.64022 28.0465C7.97841 27.789 7.50621 27.4824 7.00974 26.9869C6.51327 26.4914 6.20595 26.0199 5.94944 25.3585C5.75484 24.8598 5.52464 24.1089 5.46181 22.7277C5.39309 21.2344 5.37937 20.7858 5.37937 17.0027C5.37937 13.2195 5.39423 12.7722 5.46181 11.2777C5.52475 9.89647 5.75666 9.147 5.94944 8.64686C6.20708 7.98545 6.51395 7.51353 7.00974 7.01736C7.50553 6.52119 7.97727 6.21406 8.64022 5.9577C9.13918 5.76322 9.89058 5.53315 11.2726 5.47036C12.7668 5.40168 13.2156 5.38797 16.9993 5.38797C20.7831 5.38797 21.2324 5.40282 22.7278 5.47036C24.1098 5.53326 24.8597 5.76503 25.3602 5.9577C26.022 6.21406 26.4942 6.52187 26.9907 7.01736C27.4871 7.51285 27.7933 7.98545 28.051 8.64686C28.2456 9.14553 28.4758 9.89647 28.5386 11.2777C28.6073 12.7722 28.621 13.2195 28.621 17.0027C28.621 20.7858 28.6073 21.2332 28.5386 22.7277C28.4756 24.1089 28.2443 24.8596 28.051 25.3585C27.7933 26.0199 27.4864 26.4918 26.9907 26.9869C26.4949 27.4819 26.022 27.789 25.3602 28.0465C24.8612 28.241 24.1098 28.4711 22.7278 28.5339C21.2336 28.6025 20.7848 28.6163 16.9993 28.6163C13.2139 28.6163 12.7663 28.6025 11.2726 28.5339ZM11.1552 2.92173C9.6462 2.99041 8.61504 3.22954 7.71452 3.57974C6.78191 3.94139 5.99242 4.42657 5.20349 5.21378C4.41455 6.00099 3.93033 6.79126 3.56847 7.72331C3.21806 8.62386 2.97878 9.65383 2.91006 11.1619C2.84021 12.6725 2.82422 13.1554 2.82422 17.0026C2.82422 20.8498 2.84021 21.3327 2.91006 22.8432C2.97878 24.3514 3.21806 25.3813 3.56847 26.2818C3.93033 27.2133 4.41467 28.0045 5.20349 28.7914C5.9923 29.5782 6.78191 30.0627 7.71452 30.4254C8.61674 30.7756 9.6462 31.0147 11.1552 31.0834C12.6674 31.1521 13.1498 31.1692 16.9993 31.1692C20.8489 31.1692 21.3321 31.1532 22.8435 31.0834C24.3526 31.0147 25.3831 30.7756 26.2842 30.4254C27.2162 30.0627 28.0063 29.5786 28.7952 28.7914C29.5841 28.0041 30.0673 27.2133 30.4302 26.2818C30.7806 25.3813 31.021 24.3513 31.0886 22.8432C31.1574 21.3315 31.1733 20.8498 31.1733 17.0026C31.1733 13.1554 31.1574 12.6725 31.0886 11.1619C31.0199 9.65371 30.7806 8.62329 30.4302 7.72331C30.0673 6.79183 29.5829 6.00224 28.7952 5.21378C28.0075 4.42532 27.2162 3.94139 26.2853 3.57974C25.3831 3.22954 24.3525 2.98928 22.8446 2.92173C21.3332 2.85305 20.85 2.83594 17.0005 2.83594C13.151 2.83594 12.6674 2.85192 11.1552 2.92173Z" fill="#CE7D63"/>
</svg>
