<svg width="34" height="34" viewBox="0 0 34 34" fill="none" xmlns="http://www.w3.org/2000/svg">
<path fill-rule="evenodd" clip-rule="evenodd" d="M31.1654 17.0026V27.2108C31.1654 29.0295 29.2515 30.2123 27.6248 29.399C26.3101 28.7416 24.7439 28.8391 23.5208 29.6545C22.1449 30.5718 20.3525 30.5718 18.9766 29.6545L18.477 29.3214C17.5818 28.7247 16.4156 28.7247 15.5204 29.3214L15.0208 29.6545C13.6449 30.5718 11.8525 30.5718 10.4766 29.6545C9.2535 28.8391 7.68731 28.7416 6.37256 29.399C4.74592 30.2123 2.83203 29.0295 2.83203 27.2108V17.0026C2.83203 9.17857 9.17466 2.83594 16.9987 2.83594C24.8227 2.83594 31.1654 9.17857 31.1654 17.0026ZM13.3814 20.399C12.91 20.0496 12.2446 20.1485 11.8951 20.6199C11.5457 21.0913 11.6446 21.7568 12.116 22.1062C13.4936 23.1273 15.1783 23.7318 16.9987 23.7318C18.8191 23.7318 20.5038 23.1273 21.8814 22.1062C22.3528 21.7568 22.4517 21.0913 22.1023 20.6199C21.7528 20.1485 21.0874 20.0496 20.616 20.399C19.5842 21.1638 18.3387 21.6068 16.9987 21.6068C15.6587 21.6068 14.4132 21.1638 13.3814 20.399ZM22.6654 13.4609C22.6654 14.6345 22.0311 15.5859 21.2487 15.5859C20.4663 15.5859 19.832 14.6345 19.832 13.4609C19.832 12.2873 20.4663 11.3359 21.2487 11.3359C22.0311 11.3359 22.6654 12.2873 22.6654 13.4609ZM12.7487 15.5859C13.5311 15.5859 14.1654 14.6345 14.1654 13.4609C14.1654 12.2873 13.5311 11.3359 12.7487 11.3359C11.9663 11.3359 11.332 12.2873 11.332 13.4609C11.332 14.6345 11.9663 15.5859 12.7487 15.5859Z" fill="#CE7D63"/>
</svg>
