<svg width="34" height="34" viewBox="0 0 34 34" fill="none" xmlns="http://www.w3.org/2000/svg">
<path d="M9.91797 6.8442C9.91797 9.03689 12.363 11.3467 14.3801 12.8791C15.5122 13.7392 16.0782 14.1693 17.0013 14.1693C17.9244 14.1693 18.4904 13.7392 19.6225 12.8792C21.6396 11.3467 24.0846 9.03692 24.0846 6.84418C24.0846 2.89144 20.1887 1.41568 17.0013 4.46914C13.8139 1.41568 9.91797 2.89144 9.91797 6.8442Z" fill="#CE7D63"/>
<path d="M8.86954 30.3002H8.5013C7.16566 30.3002 6.49783 30.3002 6.0829 29.8853C5.66797 29.4703 5.66797 28.8025 5.66797 27.4669V25.8916C5.66797 25.1571 5.66797 24.7898 5.85664 24.4618C6.04531 24.1338 6.32994 23.9683 6.8992 23.6372C10.6469 21.4575 15.9693 20.2304 19.5216 22.3492C19.7603 22.4915 19.975 22.6634 20.1584 22.8694C20.949 23.7575 20.8914 25.0978 19.9802 25.8931C19.7878 26.0611 19.5827 26.1884 19.3761 26.2327C19.5459 26.213 19.7086 26.1905 19.8638 26.1657C21.1549 25.9598 22.2388 25.2698 23.231 24.5203L25.7912 22.5863C26.6937 21.9045 28.0333 21.9044 28.9361 22.586C29.7487 23.1996 29.9972 24.21 29.4834 25.0336C28.8843 25.994 28.0401 27.2226 27.2295 27.9734C26.4178 28.7252 25.2093 29.3964 24.2227 29.8726C23.1299 30.4001 21.9225 30.704 20.6945 30.9028C18.2038 31.306 15.6081 31.2444 13.1428 30.7365C11.7491 30.4494 10.3016 30.3002 8.86954 30.3002Z" fill="#CE7D63"/>
</svg>
