<svg width="34" height="34" viewBox="0 0 34 34" fill="none" xmlns="http://www.w3.org/2000/svg">
<path d="M5.72964 7.78247L7.77856 5.73355C9.7103 3.80181 10.6762 2.83594 11.8764 2.83594C13.0766 2.83594 14.0425 3.80181 15.9742 5.73355L12.5594 9.14841L5.72964 15.9781L5.72963 15.9781C3.7979 14.0464 2.83203 13.0805 2.83203 11.8803C2.83203 10.6801 3.7979 9.71421 5.72964 7.78247L5.72964 7.78247Z" fill="#CE7D63"/>
<path d="M28.2678 26.2227L26.2188 28.2717C24.2871 30.2034 23.3212 31.1693 22.121 31.1693C20.9208 31.1693 19.9549 30.2034 18.0232 28.2717L18.0232 28.2717L24.8529 21.4419L28.2678 18.0271C30.1995 19.9588 31.1654 20.9247 31.1654 22.1249C31.1654 23.3251 30.1995 24.291 28.2678 26.2227Z" fill="#CE7D63"/>
<path d="M16.1488 25.7309L16.1488 25.7309L26.6263 15.2535C25.2003 14.66 23.5114 13.6851 21.914 12.0877C20.3165 10.4902 19.3415 8.80093 18.748 7.3748L8.27037 17.8525L8.27031 17.8525C7.45272 18.6701 7.04388 19.0789 6.6923 19.5297C6.27756 20.0614 5.92197 20.6368 5.63185 21.2456C5.3859 21.7616 5.20307 22.3101 4.83741 23.4071L2.90917 29.1918C2.72922 29.7317 2.86972 30.3268 3.27209 30.7292C3.67446 31.1316 4.26964 31.2721 4.80947 31.0921L10.5942 29.1639C11.6912 28.7982 12.2397 28.6154 12.7557 28.3695C13.3645 28.0793 13.9399 27.7237 14.4716 27.309C14.9224 26.9574 15.3312 26.5486 16.1488 25.7309Z" fill="#CE7D63"/>
<path d="M29.5337 12.3461C31.7093 10.1705 31.7093 6.6432 29.5337 4.46762C27.3581 2.29204 23.8308 2.29204 21.6552 4.46762L20.3986 5.72426C20.4158 5.77622 20.4336 5.82891 20.4521 5.88227C20.9127 7.20989 21.7818 8.95028 23.4166 10.5851C25.0515 12.22 26.7919 13.089 28.1195 13.5496C28.1726 13.5681 28.2251 13.5858 28.2768 13.603L29.5337 12.3461Z" fill="#CE7D63"/>
</svg>
