<svg width="34" height="34" viewBox="0 0 34 34" fill="none" xmlns="http://www.w3.org/2000/svg">
<path fill-rule="evenodd" clip-rule="evenodd" d="M7.3277 4.49567C5.66797 6.15539 5.66797 8.82669 5.66797 14.1693V19.8359C5.66797 25.1785 5.66797 27.8498 7.3277 29.5095C8.98743 31.1693 11.6587 31.1693 17.0013 31.1693C22.3439 31.1693 25.0152 31.1693 26.6749 29.5095C28.3346 27.8498 28.3346 25.1785 28.3346 19.8359V14.1693C28.3346 8.82669 28.3346 6.15539 26.6749 4.49567C25.0152 2.83594 22.3439 2.83594 17.0013 2.83594C11.6587 2.83594 8.98743 2.83594 7.3277 4.49567ZM12.7513 6.02344C12.1645 6.02344 11.6888 6.49914 11.6888 7.08594C11.6888 7.67274 12.1645 8.14844 12.7513 8.14844H21.2513C21.8381 8.14844 22.3138 7.67274 22.3138 7.08594C22.3138 6.49914 21.8381 6.02344 21.2513 6.02344H12.7513ZM17.0013 26.9193C18.5661 26.9193 19.8346 25.6507 19.8346 24.0859C19.8346 22.5211 18.5661 21.2526 17.0013 21.2526C15.4365 21.2526 14.168 22.5211 14.168 24.0859C14.168 25.6507 15.4365 26.9193 17.0013 26.9193Z" fill="#CE7D63"/>
</svg>
