<svg width="29" height="29" viewBox="0 0 29 29" fill="none" xmlns="http://www.w3.org/2000/svg">
<path fill-rule="evenodd" clip-rule="evenodd" d="M28.3333 14.1667C28.3333 21.9907 21.9907 28.3333 14.1667 28.3333C6.34263 28.3333 0 21.9907 0 14.1667C0 6.34263 6.34263 0 14.1667 0C21.9907 0 28.3333 6.34263 28.3333 14.1667ZM16.2748 6.29837C16.8416 6.45024 17.1779 7.03285 17.0261 7.59966L13.3594 21.2836C13.2076 21.8504 12.625 22.1868 12.0582 22.0349C11.4914 21.883 11.155 21.3004 11.3069 20.7336L14.9735 7.04967C15.1253 6.48286 15.7079 6.14649 16.2748 6.29837ZM18.3737 9.16537C18.7886 8.75044 19.4614 8.75044 19.8763 9.16537L20.1715 9.46052C21.0715 10.3605 21.8221 11.111 22.3378 11.7869C22.8821 12.5004 23.2639 13.2542 23.2639 14.1667C23.2639 15.0792 22.8821 15.833 22.3378 16.5464C21.8221 17.2223 21.0715 17.9728 20.1715 18.8728L19.8763 19.168C19.4614 19.5829 18.7886 19.5829 18.3737 19.168C17.9588 18.753 17.9588 18.0803 18.3737 17.6654L18.6168 17.4223C19.5824 16.4566 20.2295 15.8063 20.6484 15.2574C21.0485 14.733 21.1389 14.4278 21.1389 14.1667C21.1389 13.9056 21.0485 13.6003 20.6484 13.0759C20.2295 12.527 19.5824 11.8767 18.6168 10.911L18.3737 10.668C17.9588 10.253 17.9588 9.5803 18.3737 9.16537ZM8.4573 9.16537C8.87223 8.75044 9.54497 8.75044 9.9599 9.16537C10.3748 9.5803 10.3748 10.253 9.9599 10.668L9.71684 10.911C8.75115 11.8767 8.10407 12.527 7.68525 13.0759C7.28513 13.6003 7.1947 13.9056 7.1947 14.1667C7.1947 14.4278 7.28513 14.733 7.68525 15.2574C8.10407 15.8063 8.75115 16.4566 9.71684 17.4223L9.9599 17.6654C10.3748 18.0803 10.3748 18.753 9.9599 19.168C9.54497 19.5829 8.87223 19.5829 8.4573 19.168L8.16214 18.8728C7.26208 17.9728 6.51153 17.2223 5.99583 16.5464C5.45149 15.833 5.0697 15.0792 5.0697 14.1667C5.0697 13.2542 5.45149 12.5004 5.99583 11.7869C6.51153 11.111 7.26208 10.3605 8.16214 9.46052L8.4573 9.16537Z" fill="#CE7D63"/>
</svg>
